# xmcd
#
# Track frame offsets: 
#        150
#        17620
#        31730
#        45873
#        67314
#        77803
#        92882
#        102687
#        118593
#        133898
#        154236
#        167866
#        187859
#
# Disc length: 2696 seconds
#
# Revision: 0
# Processed by: cddbd v1.5.2PL0 Copyright (c) Steve Scherf et al.
# Submitted via: ExactAudioCopy v0.99pb4
#
DISCID=ab0a860d
DTITLE=Amos Lee - Supply and Demand
DYEAR=2006
DGENRE=Soul
TTITLE0=Shout Out Loud
TTITLE1=Sympathize
TTITLE2=Freedom
TTITLE3=Careless
TTITLE4=Skipping Stone
TTITLE5=Supply and Demand
TTITLE6=Sweet Pea
TTITLE7=Night Train
TTITLE8=Southern Girl
TTITLE9=Wind
TTITLE10=Long Line of Pain
TTITLE11=Truth
TTITLE12=Long Line Of Pain
EXTD=
EXTT0=Shout Out Loud
EXTT1=
EXTT2=
EXTT3=
EXTT4=
EXTT5=
EXTT6=
EXTT7=
EXTT8=
EXTT9=
EXTT10=
EXTT11=
EXTT12=
PLAYORDER=
